<svg xmlns="http://www.w3.org/2000/svg" width="87.382" height="83.259" viewBox="0 0 87.382 83.259">
  <g id="TYPE_A" data-name="TYPE A" transform="translate(-310.309 181.967)">
    <g id="グループ_1702" data-name="グループ 1702">
      <path id="パス_1137" data-name="パス 1137" d="M397.691-146.512c0-19.55-19.6-35.455-43.691-35.455s-43.691,15.9-43.691,35.455c0,17.527,15.543,32.206,36.539,34.981,1.423.307,3.36.938,3.849,2.154a8.971,8.971,0,0,1,.142,3.951s-.513,3.083-.624,3.74c-.19,1.1-.878,4.32,3.785,2.355s25.161-14.815,34.328-25.366h0c6.332-6.944,9.365-13.99,9.365-21.815" fill="#fff"/>
      <g id="グループ_1701" data-name="グループ 1701">
        <path id="パス_1138" data-name="パス 1138" d="M345.123-155.959h-3.065a.851.851,0,0,0-.851.85v19.037a.85.85,0,0,0,.851.849h3.065a.851.851,0,0,0,.851-.849v-19.037a.851.851,0,0,0-.851-.85" fill="#45a024"/>
        <path id="パス_1139" data-name="パス 1139" d="M366.217-155.959h-3.065a.851.851,0,0,0-.851.85v11.31l-8.724-11.782a.93.93,0,0,0-.066-.086l-.006-.006a.629.629,0,0,0-.051-.052l-.016-.015a.559.559,0,0,0-.045-.038l-.022-.017c-.015-.01-.029-.021-.044-.03l-.026-.015c-.015-.009-.03-.018-.046-.026l-.026-.013c-.016-.007-.032-.015-.049-.021l-.028-.009a.488.488,0,0,0-.05-.017l-.03-.008-.049-.011-.036,0a.308.308,0,0,0-.045-.006l-.044,0H349.8a.851.851,0,0,0-.851.85v19.037a.851.851,0,0,0,.851.849h3.065a.85.85,0,0,0,.851-.849v-11.307l8.735,11.8a.844.844,0,0,0,.216.21l.009.007a.548.548,0,0,0,.052.031l.024.014.041.02.042.017.025.009c.02.007.039.014.058.019l.012,0a.868.868,0,0,0,.218.029h3.065a.85.85,0,0,0,.851-.849v-19.037a.851.851,0,0,0-.851-.85" fill="#45a024"/>
        <path id="パス_1140" data-name="パス 1140" d="M337.735-139.99h-8.327v-15.119a.85.85,0,0,0-.85-.85h-3.065a.85.85,0,0,0-.851.85v19.037a.842.842,0,0,0,.238.587l.011.013.013.012a.843.843,0,0,0,.587.237h12.244a.85.85,0,0,0,.85-.851v-3.065a.851.851,0,0,0-.85-.851" fill="#45a024"/>
        <path id="パス_1141" data-name="パス 1141" d="M383.141-151.192a.85.85,0,0,0,.849-.851v-3.064a.85.85,0,0,0-.849-.852H370.9a.849.849,0,0,0-.591.24l-.009.009-.014.015a.844.844,0,0,0-.236.586v19.037a.842.842,0,0,0,.238.587l.012.013.012.011a.845.845,0,0,0,.588.238h12.244a.85.85,0,0,0,.849-.851v-3.065a.851.851,0,0,0-.849-.851h-8.327v-3.218h8.327a.849.849,0,0,0,.849-.851v-3.064a.851.851,0,0,0-.849-.852h-8.327v-3.217Z" fill="#45a024"/>
      </g>
    </g>
  </g>
</svg>
