<svg xmlns="http://www.w3.org/2000/svg" width="30" height="30" viewBox="0 0 30 30">
  <g id="グループ_163" data-name="グループ 163" transform="translate(-378 -368)">
    <path id="パス_830" data-name="パス 830" d="M393,368a15,15,0,0,0,0,30h.037a5.551,5.551,0,0,0,3.806-1.324,4.168,4.168,0,0,0,1.389-3.09A4.123,4.123,0,0,0,397.9,392a6.34,6.34,0,0,0,.662-.436,1.574,1.574,0,0,0,.451-1.863,15.959,15.959,0,0,0-2.7-2.8,1.351,1.351,0,0,0-1.647.552c-.382.559-.684.392-.684.392a18.773,18.773,0,0,1-4.124-8.325s.049-.343.726-.308a1.349,1.349,0,0,0,1.437-.976,15.926,15.926,0,0,0-.586-3.844c-.312-.851-1.468-.858-1.754-.77a4.451,4.451,0,0,0-3.458,3.88,16.512,16.512,0,0,0,7.163,14.456,3.967,3.967,0,0,0,2.9.625,2.395,2.395,0,0,1-.6,2.81,3.834,3.834,0,0,1-2.648.877H393a13.294,13.294,0,1,1,9.65-4.16A.861.861,0,0,0,403.9,393.3,15,15,0,0,0,393,368Z" fill="#2c2c2c"/>
  </g>
</svg>
