<svg xmlns="http://www.w3.org/2000/svg" xmlns:xlink="http://www.w3.org/1999/xlink" width="150" height="120" viewBox="0 0 150 120">
  <defs>
    <linearGradient id="linear-gradient" x1="0.5" x2="0.5" y2="1" gradientUnits="objectBoundingBox">
      <stop offset="0" stop-color="#fd7fc8"/>
      <stop offset="1" stop-color="#b7f"/>
    </linearGradient>
  </defs>
  <g id="グループ_1691" data-name="グループ 1691" transform="translate(1190 -3054)">
    <g id="グループ_1685" data-name="グループ 1685" transform="translate(-1534.529 2701)">
      <path id="パス_811" data-name="パス 811" d="M419.535,389.106l-19.508-18.868a7.962,7.962,0,0,0-13.5,5.724v48.163a11.95,11.95,0,0,0,3.64,8.586L414,455.76a7.965,7.965,0,0,0,11.072,0l23.83-23.048a11.948,11.948,0,0,0,3.641-8.586V375.963a7.962,7.962,0,0,0-13.5-5.724Zm21.771,33.633a3.982,3.982,0,0,1-1.214,2.862l-20.556,19.882V404.738l3.907-3.778,14.49-14.013a1.99,1.99,0,0,1,3.374,1.429Z" fill="url(#linear-gradient)"/>
    </g>
    <rect id="長方形_408" data-name="長方形 408" width="150" height="120" transform="translate(-1190 3054)" fill="none"/>
  </g>
</svg>
