<svg xmlns="http://www.w3.org/2000/svg" xmlns:xlink="http://www.w3.org/1999/xlink" width="150" height="120" viewBox="0 0 150 120">
  <defs>
    <linearGradient id="linear-gradient" x1="0.5" x2="0.5" y2="1" gradientUnits="objectBoundingBox">
      <stop offset="0" stop-color="#fd7fc8"/>
      <stop offset="1" stop-color="#b7f"/>
    </linearGradient>
  </defs>
  <g id="グループ_1695" data-name="グループ 1695" transform="translate(1364 -3324)">
    <g id="グループ_1689" data-name="グループ 1689" transform="translate(-1456 3151.924)">
      <g id="グループ_161" data-name="グループ 161" transform="translate(165.824 229.481)">
        <path id="パス_827" data-name="パス 827" d="M413.537,519.271l-17.641,9.27a10.367,10.367,0,0,1-2.344.887c4.248.814,9.868.1,13.526-2.844l7.139-6.463Z" transform="translate(-393.552 -494.524)" fill="url(#linear-gradient)"/>
        <path id="パス_828" data-name="パス 828" d="M551.687,406.323,533.06,386.018a7.347,7.347,0,0,0-9.327-1.247A9.564,9.564,0,0,1,531.4,389.8l12.979,24.308a7.968,7.968,0,0,1,.376.815,5.586,5.586,0,0,0,6.927-8.6Z" transform="translate(-499.981 -383.641)" fill="url(#linear-gradient)"/>
      </g>
      <path id="パス_829" data-name="パス 829" d="M208.258,282.416,195.28,258.109a7.346,7.346,0,0,0-9.894-3.042l-.626.329-17.541,9.217-.034-.042-.335-.445q-.169-.219-.33-.451a31.173,31.173,0,0,1-2.372-3.916,36.708,36.708,0,0,1-1.866-4.33c-.264-.742-.5-1.492-.709-2.227-.073-.256-.137-.506-.2-.753l17.883-6.131.424-.145a5.823,5.823,0,0,0,1.191-10.444L163.45,224.843c-.1-.063-.2-.12-.309-.174a13.443,13.443,0,0,1,.406,2.2,13.175,13.175,0,0,1-1.912,8.264l3.712,3.175-7.687,2.635c-6.244,1.525-12.9.227-15.919-.543l-8.826-2.655,5.023-4.817a13.339,13.339,0,0,1-.818-3.464,13.175,13.175,0,0,1,1.868-8.2,4.5,4.5,0,0,0-2.793.871l-18.808,13.786a5.84,5.84,0,0,0,1.77,10.3l.375.113,18.788,5.651,1.132,4.479c.045.218.511,1.713.511,1.713l.057.153c.124.33.246.643.371.95.249.612.5,1.2.765,1.781.523,1.158,1.078,2.276,1.667,3.374a57.476,57.476,0,0,0,3.957,6.348,50.888,50.888,0,0,0,4.889,5.837,44.432,44.432,0,0,0,5.922,5.1,9.362,9.362,0,0,0,1.267.767,8.087,8.087,0,0,0,8.269.441L186.4,272.809l12.56,15.727a5.588,5.588,0,0,0,9.3-6.119Z" transform="translate(0 -21.414)" fill="url(#linear-gradient)"/>
      <circle id="楕円形_13" data-name="楕円形 13" cx="11.045" cy="11.045" r="11.045" transform="matrix(0.998, -0.059, 0.059, 0.998, 138.658, 196.38)" fill="url(#linear-gradient)"/>
    </g>
    <rect id="長方形_410" data-name="長方形 410" width="150" height="120" transform="translate(-1364 3324)" fill="none"/>
  </g>
</svg>
