<svg xmlns="http://www.w3.org/2000/svg" xmlns:xlink="http://www.w3.org/1999/xlink" width="150" height="120" viewBox="0 0 150 120">
  <defs>
    <linearGradient id="linear-gradient" x1="0.5" x2="0.5" y2="1" gradientUnits="objectBoundingBox">
      <stop offset="0" stop-color="#fd7fc8"/>
      <stop offset="1" stop-color="#b7f"/>
    </linearGradient>
  </defs>
  <g id="グループ_1694" data-name="グループ 1694" transform="translate(1190 -3324)">
    <g id="グループ_1688" data-name="グループ 1688" transform="translate(-1538.133 2970)">
      <path id="パス_823" data-name="パス 823" d="M447.857,385.763a8,8,0,1,0-8-8A8,8,0,0,0,447.857,385.763Z" transform="translate(-17.734 -0.509)" fill="url(#linear-gradient)"/>
      <path id="パス_824" data-name="パス 824" d="M415.848,406.646l10.76,6.421a5.111,5.111,0,0,0,4.427.393l6.373-3.433,3.022,12.189-10.044-.051a5.655,5.655,0,0,0-5.573,6.734l3.379,17.4a3.665,3.665,0,0,0,4.142,2.926l.145-.021a3.663,3.663,0,0,0,3.107-3.959l-1.145-12.465,15.037.56,5.6,8.915A16.893,16.893,0,0,0,459,445.2l12.343,6.742a3.61,3.61,0,0,0,4.808-1.446l.068-.119a3.611,3.611,0,0,0-1.279-4.845L463.505,437.7l-7.081-15.107L453.306,405l7.436-.944,8.73,5.646a2.809,2.809,0,0,0,3.64-.5l.051-.058a2.809,2.809,0,0,0-.244-3.959l-7.811-6.945a4.854,4.854,0,0,0-3.046-1.223l-16.786-1.088a9.875,9.875,0,0,0-1.161.013c-.251.021-.5.052-.756.094a8.4,8.4,0,0,0-3.755,1.661l-11.628,7.842-9.028-4.237a2.98,2.98,0,0,0-4.005,1.053l-.114.185a2.982,2.982,0,0,0,1.021,4.112Z" transform="translate(-10.417 -8.019)" fill="url(#linear-gradient)"/>
      <path id="パス_825" data-name="パス 825" d="M468.913,466.656a2.69,2.69,0,0,0-2.378-2.626l-78.922-9.257-.592-.087.592-3.524,4.7-28.012,9.066,1.347.981-6.273-10.02-1.508a5.386,5.386,0,0,0-6.113,4.434l-4.888,29.093-3.159,18.776a3.592,3.592,0,0,0,3.541,4.186h84.563a2.693,2.693,0,0,0,2.694-2.742Z" transform="translate(0 -13.978)" fill="url(#linear-gradient)"/>
      <path id="パス_826" data-name="パス 826" d="M462.109,372.787c2.519-.521,5.253,1,9.225,1.966,4.952,1.208,9.138-3,7.5-6.546-.954.41-2.048,2.592-8.73.41a11.524,11.524,0,0,0-10.512,1.588A8.437,8.437,0,0,1,462.109,372.787Z" transform="translate(-23.403)" fill="url(#linear-gradient)"/>
    </g>
    <rect id="長方形_411" data-name="長方形 411" width="150" height="120" transform="translate(-1190 3324)" fill="none"/>
  </g>
</svg>
