<svg xmlns="http://www.w3.org/2000/svg" xmlns:xlink="http://www.w3.org/1999/xlink" width="150" height="120" viewBox="0 0 150 120">
  <defs>
    <linearGradient id="linear-gradient" x1="0.5" x2="0.5" y2="1" gradientUnits="objectBoundingBox">
      <stop offset="0" stop-color="#fd7fc8"/>
      <stop offset="1" stop-color="#b7f"/>
    </linearGradient>
  </defs>
  <g id="グループ_1693" data-name="グループ 1693" transform="translate(1025 -3324)">
    <g id="グループ_1684" data-name="グループ 1684" transform="translate(-1123 3176.276)">
      <circle id="楕円形_11" data-name="楕円形 11" cx="7.231" cy="7.231" r="7.231" transform="matrix(0.964, -0.264, 0.264, 0.964, 173.494, 163.548)" fill="url(#linear-gradient)"/>
      <circle id="楕円形_12" data-name="楕円形 12" cx="7.231" cy="7.231" r="7.231" transform="translate(208.277 213.851) rotate(-68.003)" fill="url(#linear-gradient)"/>
      <path id="パス_807" data-name="パス 807" d="M206.811,473.2l-9.049-7.869H115v8.121h5.131v25.981h8.422V473.451H152.2l1.019,21.649a4.545,4.545,0,0,0,9.079,0l1.019-21.649H207.1Z" transform="translate(0 -243.143)" fill="url(#linear-gradient)"/>
      <path id="パス_808" data-name="パス 808" d="M573.633,510.629v24.844h8.422V512.208l-6.839-1.089A5.857,5.857,0,0,1,573.633,510.629Z" transform="translate(-364.893 -279.184)" fill="url(#linear-gradient)"/>
      <path id="パス_809" data-name="パス 809" d="M235.584,402.459l-14.246-4.529s-11.648-14.247-13.477-15.407a6.489,6.489,0,0,1-5.973,9.026h0a6.464,6.464,0,0,1-3.557-1.061l-11.2-7.335-14.96,1.311c-1.247,0-44.2,3.236-44.2,3.236l-.224.01a4.61,4.61,0,0,0,.224,9.215h76.956l10,8.706.6.525a3.6,3.6,0,0,0,1.793.832l16.554,2.635a3.692,3.692,0,0,0,1.7-7.165Z" transform="translate(-6.656 -177.261)" fill="url(#linear-gradient)"/>
      <path id="パス_810" data-name="パス 810" d="M318.41,268.277l3.681-5.912,1.657,2.615.566.894a3.293,3.293,0,0,0,.973.982l12.946,8.482a4.252,4.252,0,0,0,5.206-6.688l-10.133-9.3-4.383-11.509a29.2,29.2,0,0,0-1.765-4.23c-1.5-3.16-6.133-4.045-8.813-3.116a9.4,9.4,0,0,0-4.856,3.966l-15.823,25.41c6.665-.488,11.994-.868,13.035-.914Z" transform="translate(-145.33 -63.981)" fill="url(#linear-gradient)"/>
    </g>
    <rect id="長方形_406" data-name="長方形 406" width="150" height="120" transform="translate(-1025 3324)" fill="none"/>
  </g>
</svg>
