<svg xmlns="http://www.w3.org/2000/svg" xmlns:xlink="http://www.w3.org/1999/xlink" width="150" height="120" viewBox="0 0 150 120">
  <defs>
    <linearGradient id="linear-gradient" x1="0.5" x2="0.5" y2="1" gradientUnits="objectBoundingBox">
      <stop offset="0" stop-color="#fd7fc8"/>
      <stop offset="1" stop-color="#b7f"/>
    </linearGradient>
  </defs>
  <g id="グループ_1692" data-name="グループ 1692" transform="translate(1025 -3054)">
    <g id="グループ_1687" data-name="グループ 1687" transform="translate(-1385 2691.009)">
      <path id="パス_815" data-name="パス 815" d="M388.444,468.68a13.227,13.227,0,0,1-3.894-9.377V445.656H378V459.3a19.843,19.843,0,0,0,19.824,19.825h8.951v-6.552h-8.951A13.214,13.214,0,0,1,388.444,468.68Z" transform="translate(0 -8.825)" fill="url(#linear-gradient)"/>
      <path id="パス_816" data-name="パス 816" d="M398.341,422.7a8.647,8.647,0,1,0-8.647-8.646A8.64,8.64,0,0,0,398.341,422.7Z" transform="translate(-1.364 -4.131)" fill="url(#linear-gradient)"/>
      <path id="パス_817" data-name="パス 817" d="M418.956,454.835h-12.13V436.779a8.459,8.459,0,1,0-16.918,0V457.35a8.459,8.459,0,0,0,8.458,8.459c.634,0,15.464-.042,15.464-.042l.811,12.519a4.645,4.645,0,1,0,9.288-.2l.493-17.78A5.463,5.463,0,0,0,418.956,454.835Z" transform="translate(-1.389 -6.803)" fill="url(#linear-gradient)"/>
      <path id="パス_818" data-name="パス 818" d="M495.651,445.656V459.3a13.3,13.3,0,0,1-13.272,13.273h-8.953v6.552h8.953A19.844,19.844,0,0,0,502.2,459.3V445.656Z" transform="translate(-11.13 -8.825)" fill="url(#linear-gradient)"/>
      <path id="パス_819" data-name="パス 819" d="M483.376,422.7a8.647,8.647,0,1,0-8.645-8.646A8.644,8.644,0,0,0,483.376,422.7Z" transform="translate(-11.282 -4.131)" fill="url(#linear-gradient)"/>
      <path id="パス_820" data-name="パス 820" d="M489.537,457.35V436.779a8.46,8.46,0,1,0-16.92,0v18.056h-12.13a5.463,5.463,0,0,0-5.465,5.465l.493,17.78a4.645,4.645,0,1,0,9.288.2l.811-12.519s14.83.042,15.464.042A8.46,8.46,0,0,0,489.537,457.35Z" transform="translate(-8.983 -6.803)" fill="url(#linear-gradient)"/>
      <rect id="長方形_167" data-name="長方形 167" width="46.903" height="7.983" transform="translate(411.933 436.913)" fill="url(#linear-gradient)"/>
      <rect id="長方形_168" data-name="長方形 168" width="5.458" height="19.323" transform="translate(431.896 449.181)" fill="url(#linear-gradient)"/>
      <path id="パス_821" data-name="パス 821" d="M464.4,404.3a7.716,7.716,0,0,1-1.474,4.481,11.173,11.173,0,0,1-4.078,3.436l-1.255.644,1.629,3.641a65.008,65.008,0,0,1-11.841-3.362l-.046-.019-.049-.013a11.528,11.528,0,0,1-6.763-5.154l-2.617,1.432a14.451,14.451,0,0,0,8.4,6.526v0a64.443,64.443,0,0,0,15.218,3.931l2.587.285-2.674-5.98a13.606,13.606,0,0,0,3.929-3.657,10.7,10.7,0,0,0,2.017-6.2,10.987,10.987,0,0,0-3.041-7.458,15.693,15.693,0,0,0-7.446-4.377l-.784,2.874a12.681,12.681,0,0,1,6.035,3.519A7.98,7.98,0,0,1,464.4,404.3Z" transform="translate(-6.987 -2.621)" fill="url(#linear-gradient)"/>
      <path id="パス_822" data-name="パス 822" d="M417.289,401l-3.584,8.012,2.589-.287a91.14,91.14,0,0,0,21.554-5.566,21.3,21.3,0,0,0,9.589-6.085,14.967,14.967,0,0,0,3.881-9.894,14.39,14.39,0,0,0-1.737-6.816,18.694,18.694,0,0,0-7.8-7.519,25.057,25.057,0,0,0-11.8-2.859,24.18,24.18,0,0,0-14.96,4.922,17.6,17.6,0,0,0-4.645,5.456,14.418,14.418,0,0,0-1.734,6.816,14.7,14.7,0,0,0,2.761,8.476A19.1,19.1,0,0,0,417.289,401ZM413,381.773a15.756,15.756,0,0,1,6.581-6.3,22.081,22.081,0,0,1,10.394-2.5,21.208,21.208,0,0,1,13.114,4.275,14.605,14.605,0,0,1,3.862,4.526,11.4,11.4,0,0,1,1.384,5.411,11.99,11.99,0,0,1-3.142,7.934,18.346,18.346,0,0,1-8.336,5.236l-.043.014-.046.019a92.418,92.418,0,0,1-18.19,5.025l2.564-5.727-1.259-.645a16.532,16.532,0,0,1-6.047-5.1,11.674,11.674,0,0,1-2.223-6.759A11.392,11.392,0,0,1,413,381.773Z" transform="translate(-3.573)" fill="url(#linear-gradient)"/>
    </g>
    <rect id="長方形_407" data-name="長方形 407" width="150" height="120" transform="translate(-1025 3054)" fill="none"/>
  </g>
</svg>
