<svg xmlns="http://www.w3.org/2000/svg" xmlns:xlink="http://www.w3.org/1999/xlink" width="150" height="120" viewBox="0 0 150 120">
  <defs>
    <linearGradient id="linear-gradient" x1="0.5" x2="0.5" y2="1" gradientUnits="objectBoundingBox">
      <stop offset="0" stop-color="#fd7fc8"/>
      <stop offset="1" stop-color="#b7f"/>
    </linearGradient>
  </defs>
  <g id="グループ_1690" data-name="グループ 1690" transform="translate(1364 -3054)">
    <g id="グループ_1686" data-name="グループ 1686" transform="translate(-1714.012 2697)">
      <path id="パス_812" data-name="パス 812" d="M433.273,403.377V414.86a1.361,1.361,0,0,1-1.394,1.327h-.372a1.357,1.357,0,0,1-1.39-1.327V403.324a2.619,2.619,0,0,0-5.229,0V414.86a1.363,1.363,0,0,1-1.394,1.327h-.372a1.363,1.363,0,0,1-1.394-1.327V403.377c0-3.387-5.06-3.273-5.06.038v10.966c-.023,6.088,1.5,7.671,4.019,9.566,2.03,1.528,3.766,2.4,3.766,6.2v24.411h6.1V430.146c0-3.794,1.732-4.67,3.763-6.2,2.518-1.9,4.041-3.479,4.018-9.566V403.415C438.333,400.1,433.273,399.99,433.273,403.377Z" transform="translate(-8.218 -7.793)" fill="url(#linear-gradient)"/>
      <path id="パス_813" data-name="パス 813" d="M459,404.53c-1.3,3.466-3.726,11.934-3.726,16.233-.338,10.344,5.236,4.8,5.375,12.9v20.972h6.069l.03.075V404.53C466.743,400.305,461.01,399.141,459,404.53Z" transform="translate(-17.367 -7.804)" fill="url(#linear-gradient)"/>
      <path id="パス_814" data-name="パス 814" d="M466.546,374.767A11.079,11.079,0,0,0,456.33,368H393.1a11.07,11.07,0,0,0-11.088,11.08v75.488a11.079,11.079,0,0,0,11.088,11.08h63.23a11.065,11.065,0,0,0,9.19-4.884,11.06,11.06,0,0,0,1.9-6.2V379.08A11.093,11.093,0,0,0,466.546,374.767Zm-70.022,84.969H393.1a5.16,5.16,0,0,1-4.3-2.283,5.092,5.092,0,0,1-.647-1.349,5.2,5.2,0,0,1-.232-1.536V379.08a5.16,5.16,0,0,1,.4-2.009,5.224,5.224,0,0,1,1.878-2.276,5.168,5.168,0,0,1,1.35-.65,5.256,5.256,0,0,1,1.543-.233h3.424Zm64.978-5.168a5.145,5.145,0,0,1-.4,2.009,5.168,5.168,0,0,1-4.771,3.159h-56.4V373.912h56.4a5.171,5.171,0,0,1,4.293,2.283,5.107,5.107,0,0,1,.65,1.348,5.177,5.177,0,0,1,.229,1.536Z" fill="url(#linear-gradient)"/>
    </g>
    <rect id="長方形_409" data-name="長方形 409" width="150" height="120" transform="translate(-1364 3054)" fill="none"/>
  </g>
</svg>
